<svg xmlns="http://www.w3.org/2000/svg" width="32.346" height="29.274" viewBox="0 0 32.346 29.274"><defs><style>.a{fill:#fff;}</style></defs><path class="a" d="M31.786,5.459A7.607,7.607,0,0,0,27.767.9,9.429,9.429,0,0,0,23.687,0a8.465,8.465,0,0,0-7.378,3.839l-.12.24-.12-.18A8.539,8.539,0,0,0,8.691.06a9.429,9.429,0,0,0-4.079.9A7.888,7.888,0,0,0,.532,5.519a10.129,10.129,0,0,0,.36,7.5C3.412,18.3,15.229,28.674,15.709,29.154a.441.441,0,0,0,.36.12h.06a.518.518,0,0,0,.36-.18c.72-.6,12.357-10.858,14.817-16.137A9.594,9.594,0,0,0,31.786,5.459Z" transform="translate(0.019)"/></svg>